# xmcd
#
# Track frame offsets: 
#        150
#        8347
#        16065
#        27405
#        40165
#        48467
#        56510
#        64492
#        73262
#        78300
#        85980
#        94280
#        104187
#        109929
#        116800
#        126217
#        130840
#        137415
#        149595
#        159197
#        168852
#        176580
#        183170
#        186895
#        191447
#        200012
#        210172
#        218497
#        226720
#        232315
#        239897
#        245355
#        251270
#        259155
#        268732
#        289060
#        309057
#
# Disc length: 4241 seconds
#
# Revision: 0
# Processed by: cddbd v1.5.2PL0 Copyright (c) Steve Scherf et al.
# Submitted via: ExactAudioCopy v1.0b3
#
DISCID=13108f25
DTITLE=Polskie Radio - Muzyka Zrodel - 23 - Od narodzin do śmierci
DYEAR=2006
DGENRE=Folk
TTITLE0=KOŁYSANKI 1. Uśnij-że mi, uśnij mój ty aniołeczku
TTITLE1=KOŁYSANKI 2. Kotys mi się, kotys
TTITLE2=KOŁYSANKI 3. Pstro kokoska, pstro
TTITLE3=CHRZEST 4. Oj, na mydło kumowie, na mydło
TTITLE4=CHRZEST 5. Kumuniu, kumuniu, co bedziem robili
TTITLE5=CHRZEST 6. Ach mój kumie, mój kumeczku
TTITLE6=DZIECIŃSTWO - PASTERSTWO 7. Gońmy krowy, gońmy
TTITLE7=DZIECIŃSTWO - PASTERSTWO 8. Ej, pasła byk owiecki
TTITLE8=DZIECIŃSTWO - PASTERSTWO 9. Za stodołą pasła bydło
TTITLE9=SIEROCE 10. Zakuwała zieziuleńka
TTITLE10=SIEROCE 11. Leciały żurawie przez pole błyszczące
TTITLE11=ZALOTNE, MIŁOSNE 12. Tam na polu syski, na polu kamycki
TTITLE12=ZALOTNE, MIŁOSNE 13. W stodole sowa siada
TTITLE13=ZALOTNE, MIŁOSNE 14. Oj, jakżem jechał od dziewczęcia
TTITLE14=ZALOTNE, MIŁOSNE 15. Którandy Jasiu pojadzies
TTITLE15=WESELE 16. Oj, zaloty, zaloty
TTITLE16=WESELE 17. A wyńciez wy moja mamo przed tyn nowy dwór
TTITLE17=WESELE 18. Dziewcyne mieć ładną
TTITLE18=WESELE 19. Oj, w ogrodzie ziele
TTITLE19=WESELE 20. Juz dzwunium, juz dzwunium
TTITLE20=WESELE 21. Przeżegnaj ich matko
TTITLE21=WESELE 22. Wybieraj się Jasiu
TTITLE22=WESELE 23. Widzisz ty Kasiuniu na kościele krzyż
TTITLE23=WESELE 24. Wisi ach wisi wiunecek ruciany
TTITLE24=WESELE 25. Zasiała nam się drobna rutejka
TTITLE25=WESELE 26. Gnij się, nie łam się
TTITLE26=WESELE 27. A wokole mój wianeczku, wokole
TTITLE27=WESELE 28. Grejta stołowi, stołowi
TTITLE28=WESELE 29. Ogrywka chmielowa
TTITLE29=WESELE 30. Ty swaszko daj nam sera
TTITLE30=WESELE 31. Śweci niesiąc, śweci
TTITLE31=WESELE 32. A wykrynć się starsy drużba dokoła
TTITLE32=WESELE 33. Cepili, cepili, ni mieli cepcyska
TTITLE33=WESELE 34. Idźcie druzki na dół wodą
TTITLE34=ŚMIERĆ 35. Chrystus jest Pan, mój żywot on nagradza hojnie
TTITLE35=ŚMIERĆ 36. Żegnam cię mój świecie wesoły
TTITLE36=ŚMIERĆ 37. Jedna garstka ziemi
EXTD=
EXTT0=
EXTT1=
EXTT2=
EXTT3=
EXTT4=
EXTT5=
EXTT6=
EXTT7=
EXTT8=
EXTT9=
EXTT10=
EXTT11=
EXTT12=
EXTT13=
EXTT14=
EXTT15=
EXTT16=
EXTT17=
EXTT18=
EXTT19=
EXTT20=
EXTT21=
EXTT22=
EXTT23=
EXTT24=
EXTT25=
EXTT26=
EXTT27=
EXTT28=
EXTT29=
EXTT30=
EXTT31=
EXTT32=
EXTT33=
EXTT34=
EXTT35=
EXTT36=
PLAYORDER=
